<mxfile host="app.diagrams.net" agent="Mozilla/5.0 (Windows NT 10.0; Win64; x64) AppleWebKit/537.36 (KHTML, like Gecko) Chrome/131.0.0.0 Safari/537.36" version="26.0.4">
  <diagram name="Strona-1" id="c445Fo20q1HLYoNn5whP">
    <mxGraphModel dx="819" dy="1617" grid="1" gridSize="10" guides="1" tooltips="1" connect="1" arrows="1" fold="1" page="1" pageScale="1" pageWidth="827" pageHeight="1169" math="0" shadow="0">
      <root>
        <mxCell id="0" />
        <mxCell id="1" parent="0" />
        <mxCell id="YA6DJJgO4RK9DE_Gpj88-1" value="&lt;h1 style=&quot;margin-top: 0px;&quot;&gt;Home network diagram&lt;/h1&gt;&lt;p&gt;This is a WIP diagram showing how everything is connected in my home including my homelab&lt;/p&gt;" style="text;html=1;whiteSpace=wrap;overflow=hidden;rounded=0;" vertex="1" parent="1">
          <mxGeometry x="10" y="60" width="180" height="140" as="geometry" />
        </mxCell>
        <mxCell id="YA6DJJgO4RK9DE_Gpj88-2" value="ISP Router&lt;div&gt;192.168.254.251&lt;/div&gt;" style="rounded=1;whiteSpace=wrap;html=1;fontFamily=Lucida Console;fillColor=#b1ddf0;strokeColor=#10739e;strokeWidth=3;" vertex="1" parent="1">
          <mxGeometry x="360" y="170" width="120" height="60" as="geometry" />
        </mxCell>
        <mxCell id="YA6DJJgO4RK9DE_Gpj88-3" value="" style="ellipse;shape=cloud;whiteSpace=wrap;html=1;fillColor=#1ba1e2;strokeColor=#006EAF;strokeWidth=4;fontColor=#ffffff;" vertex="1" parent="1">
          <mxGeometry x="329" width="170" height="110" as="geometry" />
        </mxCell>
        <mxCell id="YA6DJJgO4RK9DE_Gpj88-4" value="Internet" style="text;html=1;align=center;verticalAlign=middle;whiteSpace=wrap;rounded=0;fontFamily=Lucida Console;fontSize=21;labelBackgroundColor=none;" vertex="1" parent="1">
          <mxGeometry x="384" y="40" width="60" height="30" as="geometry" />
        </mxCell>
        <mxCell id="YA6DJJgO4RK9DE_Gpj88-5" value="" style="shape=flexArrow;endArrow=classic;html=1;rounded=0;entryX=0.55;entryY=0.95;entryDx=0;entryDy=0;entryPerimeter=0;exitX=0.5;exitY=0;exitDx=0;exitDy=0;fillColor=#fad9d5;strokeColor=#ae4132;" edge="1" parent="1" source="YA6DJJgO4RK9DE_Gpj88-2" target="YA6DJJgO4RK9DE_Gpj88-3">
          <mxGeometry width="50" height="50" relative="1" as="geometry">
            <mxPoint x="423" y="170" as="sourcePoint" />
            <mxPoint x="440" y="280" as="targetPoint" />
            <Array as="points" />
          </mxGeometry>
        </mxCell>
        <mxCell id="YA6DJJgO4RK9DE_Gpj88-6" value="&lt;font face=&quot;Lucida Console&quot;&gt;TV decoder&lt;/font&gt;&lt;div&gt;&lt;font face=&quot;Lucida Console&quot;&gt;10.0.0.102&lt;/font&gt;&lt;/div&gt;" style="shape=hexagon;perimeter=hexagonPerimeter2;whiteSpace=wrap;html=1;fixedSize=1;strokeWidth=2;fillColor=#ffcccc;strokeColor=#36393d;" vertex="1" parent="1">
          <mxGeometry x="220" y="240" width="100" height="60" as="geometry" />
        </mxCell>
        <mxCell id="YA6DJJgO4RK9DE_Gpj88-7" value="" style="shape=flexArrow;endArrow=classic;html=1;rounded=0;exitX=0.5;exitY=0;exitDx=0;exitDy=0;entryX=0;entryY=0.5;entryDx=0;entryDy=0;fillColor=#fad9d5;strokeColor=#ae4132;" edge="1" parent="1" source="YA6DJJgO4RK9DE_Gpj88-6" target="YA6DJJgO4RK9DE_Gpj88-2">
          <mxGeometry width="50" height="50" relative="1" as="geometry">
            <mxPoint x="230" y="225" as="sourcePoint" />
            <mxPoint x="280" y="175" as="targetPoint" />
            <Array as="points">
              <mxPoint x="290" y="200" />
            </Array>
          </mxGeometry>
        </mxCell>
        <mxCell id="YA6DJJgO4RK9DE_Gpj88-9" value="&lt;font face=&quot;Lucida Console&quot;&gt;MikroTik&lt;/font&gt;&lt;div&gt;&lt;font face=&quot;Lucida Console&quot;&gt;CCR2004-1G-12S+2XS&lt;/font&gt;&lt;/div&gt;&lt;div&gt;&lt;font face=&quot;Lucida Console&quot;&gt;192.168.88.1&lt;/font&gt;&lt;/div&gt;" style="rounded=1;whiteSpace=wrap;html=1;fillColor=#b1ddf0;strokeColor=#10739e;strokeWidth=3;" vertex="1" parent="1">
          <mxGeometry x="350" y="350" width="140" height="60" as="geometry" />
        </mxCell>
        <mxCell id="YA6DJJgO4RK9DE_Gpj88-11" value="&lt;font face=&quot;Lucida Console&quot;&gt;1.25G fiber&lt;/font&gt;" style="text;html=1;align=center;verticalAlign=middle;whiteSpace=wrap;rounded=0;fillColor=#fad9d5;strokeColor=#ae4132;" vertex="1" parent="1">
          <mxGeometry x="430" y="130" width="60" height="30" as="geometry" />
        </mxCell>
        <mxCell id="YA6DJJgO4RK9DE_Gpj88-12" value="&lt;font face=&quot;Lucida Console&quot;&gt;Copper to&lt;/font&gt;&lt;div&gt;&lt;font face=&quot;Lucida Console&quot;&gt;RJ45 SFP&lt;/font&gt;&lt;/div&gt;" style="text;html=1;align=center;verticalAlign=middle;whiteSpace=wrap;rounded=0;fillColor=#fad9d5;strokeColor=#ae4132;" vertex="1" parent="1">
          <mxGeometry x="430" y="260" width="70" height="30" as="geometry" />
        </mxCell>
        <mxCell id="YA6DJJgO4RK9DE_Gpj88-14" value="&lt;font face=&quot;Lucida Console&quot;&gt;2.4G and 5G Wi-Fi&lt;/font&gt;&lt;div&gt;&lt;font face=&quot;Lucida Console&quot;&gt;10.0.0.x&lt;/font&gt;&lt;/div&gt;" style="ellipse;whiteSpace=wrap;html=1;fillColor=#b0e3e6;strokeColor=#0e8088;strokeWidth=3;" vertex="1" parent="1">
          <mxGeometry x="540" y="160" width="140" height="80" as="geometry" />
        </mxCell>
        <mxCell id="YA6DJJgO4RK9DE_Gpj88-15" value="" style="shape=flexArrow;endArrow=classic;startArrow=classic;html=1;rounded=0;fillColor=#fad9d5;strokeColor=#ae4132;entryX=0;entryY=0.5;entryDx=0;entryDy=0;exitX=1;exitY=0.5;exitDx=0;exitDy=0;" edge="1" parent="1" source="YA6DJJgO4RK9DE_Gpj88-2" target="YA6DJJgO4RK9DE_Gpj88-14">
          <mxGeometry width="100" height="100" relative="1" as="geometry">
            <mxPoint x="450" y="260" as="sourcePoint" />
            <mxPoint x="550" y="160" as="targetPoint" />
          </mxGeometry>
        </mxCell>
        <mxCell id="YA6DJJgO4RK9DE_Gpj88-16" value="&lt;font face=&quot;Lucida Console&quot;&gt;sfp-sfpplus1&lt;/font&gt;" style="shape=trapezoid;perimeter=trapezoidPerimeter;whiteSpace=wrap;html=1;fixedSize=1;fillColor=#d0cee2;strokeColor=#56517e;strokeWidth=3;" vertex="1" parent="1">
          <mxGeometry x="365" y="320" width="110" height="30" as="geometry" />
        </mxCell>
        <mxCell id="YA6DJJgO4RK9DE_Gpj88-17" value="" style="shape=flexArrow;endArrow=classic;startArrow=classic;html=1;rounded=0;entryX=0.5;entryY=1;entryDx=0;entryDy=0;exitX=0.5;exitY=0;exitDx=0;exitDy=0;fillColor=#fad9d5;strokeColor=#ae4132;" edge="1" parent="1" source="YA6DJJgO4RK9DE_Gpj88-16" target="YA6DJJgO4RK9DE_Gpj88-2">
          <mxGeometry width="100" height="100" relative="1" as="geometry">
            <mxPoint x="520" y="350" as="sourcePoint" />
            <mxPoint x="620" y="250" as="targetPoint" />
          </mxGeometry>
        </mxCell>
        <mxCell id="YA6DJJgO4RK9DE_Gpj88-18" value="&lt;font face=&quot;Lucida Console&quot;&gt;Brocade&amp;nbsp;&lt;/font&gt;&lt;div&gt;&lt;font face=&quot;Lucida Console&quot;&gt;FLS648-STK&lt;/font&gt;&lt;/div&gt;&lt;div&gt;&lt;font face=&quot;Lucida Console&quot;&gt;10.0.0.20&lt;/font&gt;&lt;/div&gt;" style="rounded=1;whiteSpace=wrap;html=1;fillColor=#fad7ac;strokeColor=#b46504;strokeWidth=3;" vertex="1" parent="1">
          <mxGeometry x="80" y="450" width="120" height="60" as="geometry" />
        </mxCell>
        <mxCell id="YA6DJJgO4RK9DE_Gpj88-19" value="&lt;font face=&quot;Lucida Console&quot;&gt;1/1/48&lt;/font&gt;" style="shape=trapezoid;perimeter=trapezoidPerimeter;whiteSpace=wrap;html=1;fixedSize=1;fillColor=#d0cee2;strokeColor=#56517e;perimeterSpacing=3;strokeWidth=3;" vertex="1" parent="1">
          <mxGeometry x="87" y="420" width="106" height="30" as="geometry" />
        </mxCell>
        <mxCell id="YA6DJJgO4RK9DE_Gpj88-20" value="" style="shape=flexArrow;endArrow=classic;html=1;rounded=0;exitX=0.5;exitY=0;exitDx=0;exitDy=0;entryX=0;entryY=0.5;entryDx=0;entryDy=0;fillColor=#fad9d5;strokeColor=#ae4132;" edge="1" parent="1" source="YA6DJJgO4RK9DE_Gpj88-19" target="YA6DJJgO4RK9DE_Gpj88-9">
          <mxGeometry width="50" height="50" relative="1" as="geometry">
            <mxPoint x="150" y="405" as="sourcePoint" />
            <mxPoint x="200" y="355" as="targetPoint" />
            <Array as="points">
              <mxPoint x="140" y="380" />
            </Array>
          </mxGeometry>
        </mxCell>
        <mxCell id="YA6DJJgO4RK9DE_Gpj88-21" value="&lt;font face=&quot;Lucida Console&quot;&gt;Dell PowerEdge R710&lt;/font&gt;&lt;div&gt;&lt;font face=&quot;Lucida Console&quot;&gt;Cygnus&lt;/font&gt;&lt;/div&gt;" style="shape=hexagon;perimeter=hexagonPerimeter2;whiteSpace=wrap;html=1;fixedSize=1;fillColor=#ffcccc;strokeColor=#36393d;strokeWidth=3;" vertex="1" parent="1">
          <mxGeometry x="20" y="610" width="150" height="70" as="geometry" />
        </mxCell>
        <mxCell id="YA6DJJgO4RK9DE_Gpj88-22" value="" style="shape=flexArrow;endArrow=classic;html=1;rounded=0;exitX=0.25;exitY=1;exitDx=0;exitDy=0;entryX=0.5;entryY=0;entryDx=0;entryDy=0;fillColor=#fad9d5;strokeColor=#ae4132;" edge="1" parent="1" source="YA6DJJgO4RK9DE_Gpj88-18" target="YA6DJJgO4RK9DE_Gpj88-21">
          <mxGeometry width="50" height="50" relative="1" as="geometry">
            <mxPoint x="115" y="585" as="sourcePoint" />
            <mxPoint x="165" y="535" as="targetPoint" />
            <Array as="points">
              <mxPoint x="95" y="550" />
            </Array>
          </mxGeometry>
        </mxCell>
        <mxCell id="YA6DJJgO4RK9DE_Gpj88-23" value="&lt;font face=&quot;Lucida Console&quot;&gt;iDRAC&lt;/font&gt;&lt;div&gt;&lt;font face=&quot;Lucida Console&quot;&gt;10.0.0.115&lt;/font&gt;&lt;/div&gt;" style="rounded=0;whiteSpace=wrap;html=1;fillColor=#fad9d5;strokeColor=#ae4132;" vertex="1" parent="1">
          <mxGeometry x="110" y="550" width="80" height="30" as="geometry" />
        </mxCell>
        <mxCell id="YA6DJJgO4RK9DE_Gpj88-24" value="&lt;font face=&quot;Lucida Console&quot;&gt;Dell PowerEdge R610&lt;/font&gt;&lt;div&gt;&lt;font face=&quot;Lucida Console&quot;&gt;Orion&lt;/font&gt;&lt;/div&gt;" style="shape=hexagon;perimeter=hexagonPerimeter2;whiteSpace=wrap;html=1;fixedSize=1;fillColor=#ffcccc;strokeColor=#36393d;strokeWidth=3;" vertex="1" parent="1">
          <mxGeometry x="195" y="610" width="150" height="70" as="geometry" />
        </mxCell>
        <mxCell id="YA6DJJgO4RK9DE_Gpj88-25" value="" style="shape=flexArrow;endArrow=classic;html=1;rounded=0;exitX=0.5;exitY=1;exitDx=0;exitDy=0;entryX=0.5;entryY=0;entryDx=0;entryDy=0;fillColor=#fad9d5;strokeColor=#ae4132;" edge="1" parent="1" source="YA6DJJgO4RK9DE_Gpj88-18" target="YA6DJJgO4RK9DE_Gpj88-24">
          <mxGeometry width="50" height="50" relative="1" as="geometry">
            <mxPoint x="285" y="485" as="sourcePoint" />
            <mxPoint x="270" y="585" as="targetPoint" />
            <Array as="points">
              <mxPoint x="140" y="525" />
              <mxPoint x="270" y="525" />
            </Array>
          </mxGeometry>
        </mxCell>
        <mxCell id="YA6DJJgO4RK9DE_Gpj88-26" value="&lt;font face=&quot;Lucida Console&quot;&gt;iDRAC&lt;/font&gt;&lt;div&gt;&lt;font face=&quot;Lucida Console&quot;&gt;10.0.0.116&lt;/font&gt;&lt;/div&gt;" style="rounded=0;whiteSpace=wrap;html=1;fillColor=#fad9d5;strokeColor=#ae4132;" vertex="1" parent="1">
          <mxGeometry x="285" y="550" width="80" height="30" as="geometry" />
        </mxCell>
      </root>
    </mxGraphModel>
  </diagram>
</mxfile>
